<svg width="435" height="112" viewBox="0 0 435 112" fill="none" xmlns="http://www.w3.org/2000/svg">
<g clip-path="url(#clip0_18_554)">
<g clip-path="url(#clip1_18_554)">
<path fill-rule="evenodd" clip-rule="evenodd" d="M4.66016 75.9779L46.5139 60.3362L89.7863 69.7212L132.704 41.8068L174.558 7.15442L217.83 14.855L259.329 38.6785L302.602 53.5983L345.165 37.7159L386.309 31.6999L429.936 3.5448V110.871H5.01115L4.66016 75.9779Z" fill="url(#paint0_linear_18_554)" fill-opacity="0.1"/>
<path d="M4.66016 76.2186L46.5139 60.5249L89.7863 69.9411L132.704 41.9339L174.558 7.16642L217.83 14.8925L259.329 38.7952L302.602 53.7645L345.165 37.8294L386.309 31.7934L429.936 3.5448" stroke="#E86666" stroke-width="2"/>
<path d="M7.66016 75.7373C7.66016 77.3942 6.31701 78.7373 4.66016 78.7373C3.0033 78.7373 1.66016 77.3942 1.66016 75.7373C1.66016 74.0805 3.0033 72.7373 4.66016 72.7373C6.31701 72.7373 7.66016 74.0805 7.66016 75.7373Z" fill="white" stroke="#E86666" stroke-width="2"/>
<path d="M49.1216 60.8175C49.1216 62.4744 47.7784 63.8175 46.1216 63.8175C44.4647 63.8175 43.1216 62.4744 43.1216 60.8175C43.1216 59.1607 44.4647 57.8175 46.1216 57.8175C47.7784 57.8175 49.1216 59.1607 49.1216 60.8175Z" fill="white" stroke="#E86666" stroke-width="2"/>
<path d="M91.7676 69.4806C91.7676 71.1374 90.4244 72.4806 88.7676 72.4806C87.1107 72.4806 85.7676 71.1374 85.7676 69.4806C85.7676 67.8237 87.1107 66.4806 88.7676 66.4806C90.4244 66.4806 91.7676 67.8237 91.7676 69.4806Z" fill="white" stroke="#E86666" stroke-width="2"/>
<path d="M176.467 7.39514C176.467 9.052 175.124 10.3951 173.467 10.3951C171.81 10.3951 170.467 9.052 170.467 7.39514C170.467 5.73829 171.81 4.39514 173.467 4.39514C175.124 4.39514 176.467 5.73829 176.467 7.39514Z" fill="white" stroke="#E86666" stroke-width="2"/>
<path d="M133.821 42.5288C133.821 44.1857 132.478 45.5288 130.821 45.5288C129.164 45.5288 127.821 44.1857 127.821 42.5288C127.821 40.872 129.164 39.5288 130.821 39.5288C132.478 39.5288 133.821 40.872 133.821 42.5288Z" fill="white" stroke="#E86666" stroke-width="2"/>
<path d="M219.706 14.6144C219.706 16.2712 218.363 17.6144 216.706 17.6144C215.049 17.6144 213.706 16.2712 213.706 14.6144C213.706 12.9575 215.049 11.6144 216.706 11.6144C218.363 11.6144 219.706 12.9575 219.706 14.6144Z" fill="white" stroke="#E86666" stroke-width="2"/>
<path d="M261.167 38.6785C261.167 40.3353 259.824 41.6785 258.167 41.6785C256.511 41.6785 255.167 40.3353 255.167 38.6785C255.167 37.0216 256.511 35.6785 258.167 35.6785C259.824 35.6785 261.167 37.0216 261.167 38.6785Z" fill="white" stroke="#E86666" stroke-width="2"/>
<path d="M304.406 53.5983C304.406 55.2551 303.063 56.5983 301.406 56.5983C299.749 56.5983 298.406 55.2551 298.406 53.5983C298.406 51.9414 299.749 50.5983 301.406 50.5983C303.063 50.5983 304.406 51.9414 304.406 53.5983Z" fill="white" stroke="#E86666" stroke-width="2"/>
<path d="M346.459 37.7159C346.459 39.3728 345.116 40.7159 343.459 40.7159C341.803 40.7159 340.459 39.3728 340.459 37.7159C340.459 36.0591 341.803 34.7159 343.459 34.7159C345.116 34.7159 346.459 36.0591 346.459 37.7159Z" fill="white" stroke="#E86666" stroke-width="2"/>
<path d="M387.329 31.4592C387.329 33.1161 385.985 34.4592 384.329 34.4592C382.672 34.4592 381.329 33.1161 381.329 31.4592C381.329 29.8024 382.672 28.4592 384.329 28.4592C385.985 28.4592 387.329 29.8024 387.329 31.4592Z" fill="white" stroke="#E86666" stroke-width="2"/>
<path d="M431.751 4.02612C431.751 5.68298 430.408 7.02612 428.751 7.02612C427.095 7.02612 425.751 5.68298 425.751 4.02612C425.751 2.36927 427.095 1.02612 428.751 1.02612C430.408 1.02612 431.751 2.36927 431.751 4.02612Z" fill="white" stroke="#E86666" stroke-width="2"/>
</g>
<g clip-path="url(#clip2_18_554)">
<path opacity="0.1" fill-rule="evenodd" clip-rule="evenodd" d="M4.67773 93.1276L46.6227 90.2258L88.5676 78.8602L130.868 82.4875L174.59 61.691L216.535 53.711L260.613 80.0693L301.492 73.4193L345.214 84.9057L388.225 52.0183L430.526 29.0454V111.509H4.67773V93.1276Z" fill="url(#paint1_linear_18_554)"/>
<path d="M4.67773 93.1276L46.6924 90.2258L88.7072 78.8602L131.078 82.4875L174.873 61.691L216.888 53.711L261.039 80.0693L301.985 73.4193L345.78 84.9057L388.863 52.0183L431.234 29.0454" stroke="#F1D219" stroke-width="2"/>
<path d="M433.404 29.0454C433.404 30.7023 432.061 32.0454 430.404 32.0454C428.747 32.0454 427.404 30.7023 427.404 29.0454C427.404 27.3886 428.747 26.0454 430.404 26.0454C432.061 26.0454 433.404 27.3886 433.404 29.0454Z" fill="white" stroke="#F1D219" stroke-width="2"/>
<path d="M349.136 84.6639C349.136 86.3208 347.793 87.6639 346.136 87.6639C344.479 87.6639 343.136 86.3208 343.136 84.6639C343.136 83.0071 344.479 81.6639 346.136 81.6639C347.793 81.6639 349.136 83.0071 349.136 84.6639Z" fill="white" stroke="#F1D219" stroke-width="2"/>
<path d="M263.683 79.8275C263.683 81.4844 262.339 82.8275 260.683 82.8275C259.026 82.8275 257.683 81.4844 257.683 79.8275C257.683 78.1707 259.026 76.8275 260.683 76.8275C262.339 76.8275 263.683 78.1707 263.683 79.8275Z" fill="white" stroke="#F1D219" stroke-width="2"/>
<path d="M305.697 73.5403C305.697 75.1971 304.354 76.5403 302.697 76.5403C301.04 76.5403 299.697 75.1971 299.697 73.5403C299.697 71.8834 301.04 70.5403 302.697 70.5403C304.354 70.5403 305.697 71.8834 305.697 73.5403Z" fill="white" stroke="#F1D219" stroke-width="2"/>
<path d="M219.532 54.1947C219.532 55.8516 218.189 57.1947 216.532 57.1947C214.875 57.1947 213.532 55.8516 213.532 54.1947C213.532 52.5378 214.875 51.1947 216.532 51.1947C218.189 51.1947 219.532 52.5378 219.532 54.1947Z" fill="white" stroke="#F1D219" stroke-width="2"/>
<path d="M178.229 61.4492C178.229 63.1061 176.886 64.4492 175.229 64.4492C173.572 64.4492 172.229 63.1061 172.229 61.4492C172.229 59.7924 173.572 58.4492 175.229 58.4492C176.886 58.4492 178.229 59.7924 178.229 61.4492Z" fill="white" stroke="#F1D219" stroke-width="2"/>
<path d="M134.078 82.2457C134.078 83.9026 132.735 85.2457 131.078 85.2457C129.421 85.2457 128.078 83.9026 128.078 82.2457C128.078 80.5889 129.421 79.2457 131.078 79.2457C132.735 79.2457 134.078 80.5889 134.078 82.2457Z" fill="white" stroke="#F1D219" stroke-width="2"/>
<path d="M92.0635 78.8602C92.0635 80.5171 90.7203 81.8602 89.0635 81.8602C87.4066 81.8602 86.0635 80.5171 86.0635 78.8602C86.0635 77.2034 87.4066 75.8602 89.0635 75.8602C90.7203 75.8602 92.0635 77.2034 92.0635 78.8602Z" fill="white" stroke="#F1D219" stroke-width="2"/>
<path d="M49.3364 89.984C49.3364 91.6409 47.9933 92.984 46.3364 92.984C44.6796 92.984 43.3364 91.6409 43.3364 89.984C43.3364 88.3272 44.6796 86.984 46.3364 86.984C47.9933 86.984 49.3364 88.3272 49.3364 89.984Z" fill="white" stroke="#F1D219" stroke-width="2"/>
<path d="M7.32178 93.3694C7.32178 95.0262 5.97863 96.3694 4.32178 96.3694C2.66492 96.3694 1.32178 95.0262 1.32178 93.3694C1.32178 91.7125 2.66492 90.3694 4.32178 90.3694C5.97863 90.3694 7.32178 91.7125 7.32178 93.3694Z" fill="white" stroke="#F1D219" stroke-width="2"/>
</g>
</g>
<defs>
<linearGradient id="paint0_linear_18_554" x1="-210.4" y1="-90.0781" x2="-210.4" y2="118.959" gradientUnits="userSpaceOnUse">
<stop stop-color="#666FE8"/>
<stop offset="1" stop-color="#666FE8" stop-opacity="0.01"/>
</linearGradient>
<linearGradient id="paint1_linear_18_554" x1="98.4164" y1="65.3496" x2="98.4164" y2="111.509" gradientUnits="userSpaceOnUse">
<stop stop-color="#F1D219"/>
<stop offset="1" stop-color="#F1D219" stop-opacity="0.01"/>
</linearGradient>
<clipPath id="clip0_18_554">
<rect width="435" height="112" fill="white"/>
</clipPath>
<clipPath id="clip1_18_554">
<rect width="433" height="111" fill="white"/>
</clipPath>
<clipPath id="clip2_18_554">
<rect width="435" height="87" fill="white" transform="translate(0 25)"/>
</clipPath>
</defs>
</svg>
