<svg width="20" height="21" viewBox="0 0 20 21" fill="none" xmlns="http://www.w3.org/2000/svg">
<path d="M17.3666 4.34172C16.941 3.91589 16.4356 3.5781 15.8794 3.34763C15.3232 3.11716 14.727 2.99854 14.1249 2.99854C13.5229 2.99854 12.9267 3.11716 12.3705 3.34763C11.8143 3.5781 11.3089 3.91589 10.8833 4.34172L9.99994 5.22506L9.1166 4.34172C8.25686 3.48198 7.0908 2.99898 5.87494 2.99898C4.65908 2.99898 3.49301 3.48198 2.63327 4.34172C1.77353 5.20147 1.29053 6.36753 1.29053 7.58339C1.29053 8.79925 1.77353 9.96531 2.63327 10.8251L9.99994 18.1917L17.3666 10.8251C17.7924 10.3994 18.1302 9.89407 18.3607 9.33785C18.5912 8.78164 18.7098 8.18546 18.7098 7.58339C18.7098 6.98132 18.5912 6.38514 18.3607 5.82893C18.1302 5.27271 17.7924 4.76735 17.3666 4.34172Z" stroke="#F5F5F5" stroke-width="1.6" stroke-linecap="round" stroke-linejoin="round"/>
</svg>
